<svg id="Layer_1" data-name="Layer 1" xmlns="http://www.w3.org/2000/svg" viewBox="0 0 128.11 128.15"><defs><style>.cls-1{fill:#231f20;}</style></defs><title>icons_some_twitter_black</title><path class="cls-1" d="M773,221.47c0,10,.08,20,0,30-.2,19.66-13.7,33.31-33.34,33.48q-30.74.26-61.46,0c-19.43-.18-33-13.78-33.14-33.12q-.24-30.74,0-61.46c.14-19.4,13.65-33.06,33-33.26q31-.32,61.95,0c19.28.23,32.74,14,33,33.41C773.09,200.82,773,211.15,773,221.47Zm-65-12.68c-13.71-.76-24.13-7.1-33.25-16.42-4.09,8-1.74,14.42,3.64,20.9l-5.72-1c.35,7.78,5,12,11.58,15.51l-5.87.56c2.26,6.77,7.63,9.36,13.82,10.95l.2,1.65-20.67,6.17a9.27,9.27,0,0,0,1,.68c26.95,14.69,62.28-2.35,67.08-32.64,1-6.16,1.22-12.14,7-16,.4-.27.54-.93,1-1.72l-6.71,1.44,5-7.11c-5.59,2.18-10.1,2.82-15.23-.92-3.9-2.84-8.93-2.16-13.4-.05C710,194.24,707.59,200.59,708,208.79Z" transform="translate(-644.92 -156.92)"/></svg>