<svg id="Layer_1" data-name="Layer 1" xmlns="http://www.w3.org/2000/svg" viewBox="0 0 129.08 129.08"><defs><style>.cls-1{fill:#231f20;stroke:#231f20;stroke-miterlimit:10;}</style></defs><title>icons_some_insta_black</title><path class="cls-1" d="M373,221.43c0,10,.08,20,0,30-.19,19.68-13.66,33.35-33.29,33.52q-30.74.26-61.46,0c-19.64-.18-33.1-13.86-33.21-33.58q-.15-30.22,0-60.45c.1-20.2,13.7-33.74,34-33.84q30-.13,60,0c20.23.11,33.85,13.74,34,33.89C373.06,201.11,373,211.27,373,221.43Zm-24.45-.33V198.63c0-.33,0-.67,0-1-.41-10.33-5.91-16.08-16.26-16.22-15.65-.21-31.31-.23-46.95,0-10.07.16-15.81,6-16,16q-.33,23.47,0,47c.13,10.27,5.92,16.07,16.26,16.22q23.22.32,46.45,0c10.63-.13,16.22-5.87,16.45-16.52C348.68,236.43,348.55,228.76,348.55,221.1Z" transform="translate(-244.45 -156.48)"/><path class="cls-1" d="M276.56,213.17h11.78c-2.81,10.84-.47,19.87,8.91,26.06,7.47,4.94,15.53,5,23.08.18,9.69-6.14,11.95-15.34,9.28-26.26h11.51c0,11.29.22,22.38-.12,33.45-.12,4.16-3.3,6.61-7.42,6.65q-24.48.23-48.95,0c-4.89,0-7.87-3.08-8-7.87C276.38,234.8,276.56,224.17,276.56,213.17Z" transform="translate(-244.45 -156.48)"/><path class="cls-1" d="M309.09,207a14.14,14.14,0,0,1,13.84,14.16c.06,7.47-6.51,13.9-14.12,13.82a14,14,0,0,1,.28-28Z" transform="translate(-244.45 -156.48)"/><path class="cls-1" d="M326.27,203.65V190.53H339v13.12Z" transform="translate(-244.45 -156.48)"/></svg>