<svg id="Layer_1" data-name="Layer 1" xmlns="http://www.w3.org/2000/svg" viewBox="0 0 128.16 128.11"><defs><style>.cls-1{fill:#231f20;}</style></defs><title>icons_some_fb_black</title><path class="cls-1" d="M509.5,157c10,0,20-.08,30,0,19.67.2,33.34,13.75,33.48,33.37q.21,30.75,0,61.49c-.17,19.32-13.86,32.94-33.24,33.08q-30.74.24-61.49,0c-19.37-.14-33-13.75-33.19-33.1q-.24-30.74,0-61.48c.14-19.64,13.81-33.18,33.48-33.36C488.84,156.92,499.17,157,509.5,157Zm-10.44,64.19v39.1h15.25V220.88h11.84c.44-5.35.86-10.42,1.34-16.15H514.72c.43-3.28-.11-7.33,1.29-8.17,3-1.79,7-1.94,10.84-2.83V181.05c-7.72.38-15.36-1.54-22.19,2.86-7.61,4.91-6.55,13.12-7,20.67l-6.58.49v15.74Z" transform="translate(-444.92 -156.97)"/></svg>