<?xml version="1.0" encoding="utf-8"?>
<!-- Generator: Adobe Illustrator 22.1.0, SVG Export Plug-In . SVG Version: 6.00 Build 0)  -->
<svg version="1.1" id="Layer_1" xmlns="http://www.w3.org/2000/svg" xmlns:xlink="http://www.w3.org/1999/xlink" x="0px" y="0px"
	 viewBox="0 0 841.9 595.3" style="enable-background:new 0 0 841.9 595.3;" xml:space="preserve">
<style type="text/css">
	.st0{fill:#1B1862;}
	.st1{fill:none;stroke:#1B1862;stroke-width:4;stroke-miterlimit:10;}
</style>
<g>
	<path class="st0" d="M59.1,299.4c-27-15.1-54-30.2-81-45.3c-3.5-4.2-3.2-8.3-0.5-13c9.5-16.6,18.8-33.5,28.2-50.2
		c1.3-2.3,3-4.5,4.5-6.7c0.2-0.4,0.5-0.8,0.5-1.2c0.2-4.1,0.2-8.2,0.6-12.3c0.6-6.3,4.4-9.3,10.7-8.6c16.7,1.9,33.4,3.8,50.1,5.7
		c12.9,1.4,25.8,2.8,38.6,4.2c1.2,0.7,2.5,1.4,3.7,2.1c2.3,3.1,3,6.4,2.2,10.2c-0.4,1.6-0.4,3.2-0.6,4.8c-0.8,7.4-4.2,10.2-11.5,9.4
		c-15.6-1.7-31.2-3.5-46.9-5.3c-8.4-0.9-16.7-1.9-25.1-2.8c0,0.2-0.1,0.3-0.1,0.5c0.9,0.5,1.9,1,2.8,1.6
		c20.2,11.3,40.4,22.6,60.6,33.9c5.8,3.2,7.1,7.9,3.9,13.7c-9.9,17.6-19.8,35.2-29.5,53C67.8,297.7,64.5,300,59.1,299.4z M5.3,206.6
		c-0.6,1-1,1.8-1.5,2.6c-6.7,11.9-13.2,23.9-20,35.7c-1.4,2.4-1.1,3.6,1.4,4.9c24.7,13.7,49.3,27.4,73.8,41.2c2.3,1.3,3.4,1,4.7-1.3
		c6.7-12.1,13.5-24.2,20.2-36.3c0.4-0.7,0.7-1.4,1.1-2.3C58.5,236.3,32.1,221.5,5.3,206.6z M28.6,182.4c5.6,0.6,10.8,1.3,16.1,1.8
		c0.5,0.1,1.3-0.2,1.6-0.6c2-3.4,3.9-6.9,6-10.7c-5.6-0.6-10.8-1.2-16-1.7c-0.6-0.1-1.6,0.4-1.9,0.9
		C32.4,175.4,30.6,178.8,28.6,182.4z M58.7,227.7c4.9,2.7,9.4,5.3,13.9,7.7c0.6,0.3,1.7,0.5,2.1,0.2c3.2-2.3,6.4-4.7,9.8-7.4
		c-4.9-2.8-9.4-5.3-13.9-7.7c-0.7-0.4-2-0.3-2.6,0.2C64.9,222.8,62,225.1,58.7,227.7z M18.7,205.3c5,2.8,9.6,5.4,14.2,7.9
		c0.5,0.3,1.3,0.4,1.7,0.2c3.3-2.4,6.5-4.9,10-7.5c-5-2.8-9.3-5.3-13.8-7.6c-0.7-0.4-2-0.4-2.6,0.1C25,200.4,22.1,202.7,18.7,205.3z
		 M64.5,217c-5-2.8-9.4-5.3-13.8-7.7c-0.7-0.3-1.9-0.5-2.4-0.1c-3.2,2.2-6.2,4.7-9.6,7.2c4.9,2.7,9.4,5.3,13.9,7.7
		c0.6,0.3,1.7,0.5,2.2,0.2C57.9,222.1,60.9,219.7,64.5,217z M75,175.5c-5.5-0.6-10.8-1.3-16.2-1.8c-0.5,0-1.2,0.3-1.5,0.7
		c-2,3.4-3.8,6.8-5.9,10.5c5.6,0.6,10.9,1.3,16.2,1.8c0.5,0,1.3-0.5,1.6-1C71.2,182.5,73,179.2,75,175.5z M74.2,187.5
		c5.4,0.6,10.8,1.3,16.1,1.8c0.5,0,1.2-0.4,1.5-0.8c2-3.4,3.8-6.8,5.9-10.5c-5.5-0.6-10.8-1.3-16.1-1.8c-0.6-0.1-1.4,0.6-1.8,1.2
		C78,180.6,76.3,183.8,74.2,187.5z M96.9,190.1c3.2,0.4,6.2,0.7,9.1,1.1c2,0.3,2.7-0.6,2.8-2.5c0.1-2.1,0.6-4.2,0.6-6.3
		c0-1-0.5-3-0.9-3c-2-0.1-4.9-0.6-5.7,0.5C100.4,182.8,98.9,186.4,96.9,190.1z M89,244.5c1.6-2.9,3.2-5.4,4.5-8.1
		c0.4-0.8,0.5-2.6,0-2.8c-1.6-0.9-4.1-2.4-5.2-1.8c-3.4,1.8-6.3,4.5-9.6,7.1C82.3,240.7,85.4,242.5,89,244.5z M24.5,194.7
		c-2.9-1.6-5.2-3-7.7-4.2c-0.7-0.3-2.3-0.2-2.6,0.3c-1.9,2.9-3.5,6-5.6,9.8c2.5,0.5,4.9,1.8,6.2,1.1C18.2,200,21.1,197.3,24.5,194.7
		z M29.6,170.4c-3.1-0.4-6-0.8-8.9-1c-0.7,0-1.8,1.1-1.9,1.8c-0.5,2.4-0.8,4.8-0.8,7.2c0,0.9,0.7,2.6,1.2,2.7
		c1.6,0.2,3.5,1.6,4.8-0.7C25.7,177.2,27.6,174,29.6,170.4z"/>
	<path class="st0" d="M12.8,253.5c-5.1-2.9-10.2-5.7-15.3-8.6c-2.6-1.5-3.4-3.5-2.2-5.4c1.6-2.3,3.6-2.2,5.8-0.9
		c10.3,5.8,20.6,11.5,31,17.3c2.2,1.2,3.4,3,2.3,5.5c-0.9,2.1-3.3,2.4-6,0.9C23.2,259.4,18,256.4,12.8,253.5z"/>
	<path class="st0" d="M20.1,240.3c-5.1-2.9-10.2-5.7-15.3-8.6c-2.6-1.4-3.3-3.4-2.2-5.4c1.1-1.9,3.3-2.4,5.8-1
		c10.4,5.8,20.8,11.6,31.1,17.4c2.4,1.4,3.3,3.6,2.2,5.5c-1.1,1.9-3.2,2.3-5.8,0.9C30.7,246.2,25.4,243.3,20.1,240.3z"/>
</g>
<g>
	<path class="st0" d="M791.7,96.4c-30.3,6.4-60.5,12.9-90.8,19.3c-5.4-0.9-7.9-4.2-8.9-9.5c-3.8-18.8-7.9-37.5-11.8-56.3
		c-0.6-2.6-0.6-5.4-1-8c-0.1-0.4-0.2-1-0.4-1.3c-2.5-3.2-5.3-6.3-7.6-9.6c-3.7-5.1-2.8-9.9,2.4-13.5c13.8-9.6,27.6-19.1,41.4-28.7
		c10.6-7.4,21.2-14.9,31.9-22.3c1.4-0.3,2.8-0.6,4.2-0.9c3.7,0.8,6.5,2.9,8.3,6.3c0.8,1.4,1.8,2.7,2.7,4c4.3,6.1,3.6,10.4-2.4,14.6
		c-12.9,9-25.8,17.9-38.8,26.9c-6.9,4.8-13.8,9.6-20.7,14.4c0.1,0.1,0.1,0.3,0.2,0.4c1.1-0.2,2.1-0.4,3.2-0.7
		c22.6-4.8,45.3-9.6,67.9-14.4c6.5-1.4,10.6,1.3,12,7.8c4.2,19.8,8.3,39.6,12.7,59.3C797.1,89.4,796.2,93.4,791.7,96.4z M690.1,62
		c0.2,1.1,0.4,2,0.6,2.9c2.8,13.3,5.7,26.7,8.4,40c0.6,2.8,1.5,3.4,4.3,2.8c27.6-5.9,55.1-11.8,82.7-17.6c2.6-0.5,3.2-1.5,2.7-4.1
		c-3-13.5-5.8-27.1-8.7-40.6c-0.2-0.8-0.4-1.5-0.7-2.4C749.7,49.3,720.1,55.6,690.1,62z M691.7,28.5c4.6-3.2,9-6.2,13.3-9.3
		c0.4-0.3,0.9-1,0.8-1.5c-0.7-3.9-1.6-7.8-2.5-12c-4.7,3.2-9,6.2-13.2,9.2c-0.5,0.4-0.9,1.4-0.8,2C690,20.7,690.8,24.4,691.7,28.5z
		 M744.2,42.8c5.5-1.2,10.5-2.2,15.5-3.3c0.7-0.1,1.6-0.7,1.7-1.3c0.9-3.9,1.7-7.8,2.5-12c-5.5,1.2-10.6,2.2-15.6,3.4
		c-0.8,0.2-1.7,1.1-1.9,1.9C745.6,35,745,38.6,744.2,42.8z M699.3,52.3c5.6-1.2,10.8-2.3,15.9-3.4c0.5-0.1,1.3-0.6,1.4-1
		c0.9-3.9,1.7-7.9,2.5-12.2c-5.6,1.2-10.5,2.2-15.4,3.3c-0.8,0.2-1.7,1.1-1.9,1.8C700.9,44.4,700.2,48,699.3,52.3z M741.5,30.9
		c-5.6,1.2-10.5,2.2-15.4,3.3c-0.7,0.2-1.7,0.9-1.9,1.5c-0.9,3.8-1.6,7.6-2.5,11.7c5.5-1.2,10.5-2.2,15.5-3.3
		c0.7-0.2,1.6-0.7,1.7-1.3C739.9,39.1,740.6,35.3,741.5,30.9z M722.1-7.2c-4.5,3.1-9,6.2-13.4,9.3c-0.4,0.3-0.7,1.1-0.6,1.5
		c0.7,3.8,1.6,7.6,2.5,11.8c4.7-3.2,9-6.2,13.3-9.3c0.4-0.3,0.7-1.2,0.6-1.8C723.8,0.5,723-3.2,722.1-7.2z M729.4,2.3
		c4.5-3.1,8.9-6.1,13.3-9.2c0.4-0.3,0.7-1.1,0.6-1.5c-0.7-3.8-1.6-7.6-2.5-11.8c-4.6,3.2-9,6.1-13.3,9.2c-0.5,0.3-0.7,1.4-0.5,2.1
		C727.7-5.4,728.5-1.9,729.4,2.3z M748.2-10.7c2.6-1.8,5.1-3.6,7.6-5.2c1.7-1.1,1.6-2.2,0.5-3.7c-1.3-1.7-2.3-3.5-3.7-5.2
		c-0.7-0.8-2.3-1.9-2.6-1.7c-1.6,1.2-4,2.8-4,4.2C746.1-18.5,747.3-14.8,748.2-10.7z M778,35.4c-0.7-3.2-1.2-6.2-2-9.1
		c-0.2-0.9-1.4-2.3-1.8-2.2c-1.8,0.4-4.6,0.9-5.1,2.1c-1.3,3.6-1.7,7.6-2.5,11.6C770.5,37,774.1,36.3,778,35.4z M696.8,40.4
		c-3.2,0.7-5.9,1.1-8.5,1.9c-0.7,0.2-1.8,1.3-1.8,1.9c0.5,3.4,1.4,6.8,2.2,11.1c2.2-1.3,4.9-1.8,5.4-3.2
		C695.5,48.5,695.9,44.7,696.8,40.4z M684.5,18.8c-2.6,1.8-5.1,3.3-7.3,5.1c-0.5,0.4-0.6,2-0.3,2.7c1.2,2.1,2.6,4.1,4.1,6
		c0.6,0.7,2.2,1.5,2.7,1.2c1.3-0.9,3.7-1.1,3.2-3.7C686.2,26.5,685.4,22.8,684.5,18.8z"/>
	<path class="st0" d="M726.6,92.4c-5.7,1.2-11.5,2.5-17.2,3.6c-2.9,0.6-4.9-0.4-5.2-2.7c-0.3-2.8,1.3-4,3.8-4.6
		c11.6-2.5,23.1-4.9,34.7-7.4c2.5-0.5,4.5,0,5.3,2.6c0.7,2.2-0.9,4-3.9,4.6C738.3,90,732.5,91.2,726.6,92.4z"/>
	<path class="st0" d="M723.5,77.6c-5.7,1.2-11.4,2.4-17.2,3.6c-2.9,0.6-4.8-0.4-5.2-2.6c-0.5-2.2,0.9-4,3.7-4.6
		c11.6-2.5,23.3-5,34.9-7.4c2.7-0.6,4.8,0.6,5.3,2.7c0.5,2.2-0.9,3.8-3.8,4.5C735.3,75.1,729.4,76.4,723.5,77.6z"/>
</g>
<g>
	<path class="st0" d="M714.9,498.1c-17.1-10.3-34.3-20.5-51.4-30.8c-2.2-2.8-1.9-5.4-0.1-8.4c6.5-10.6,12.8-21.2,19.2-31.9
		c0.9-1.5,2-2.8,3.1-4.2c0.2-0.2,0.3-0.5,0.4-0.8c0.2-2.6,0.3-5.3,0.6-7.9c0.5-4.1,3-5.9,7.1-5.3c10.7,1.5,21.5,3.1,32.2,4.6
		c8.3,1.2,16.6,2.3,24.9,3.5c0.8,0.5,1.6,0.9,2.4,1.4c1.4,2,1.8,4.2,1.2,6.6c-0.3,1-0.3,2.1-0.5,3.1c-0.6,4.8-2.9,6.5-7.6,5.8
		c-10.1-1.4-20.1-2.9-30.1-4.3c-5.4-0.8-10.8-1.5-16.1-2.3c0,0.1-0.1,0.2-0.1,0.3c0.6,0.4,1.2,0.7,1.8,1.1
		c12.8,7.7,25.6,15.4,38.5,23.1c3.7,2.2,4.4,5.3,2.2,8.9c-6.7,11.2-13.5,22.4-20.1,33.6C720.6,497.1,718.3,498.6,714.9,498.1z
		 M682,437.1c-0.4,0.6-0.7,1.1-1,1.6c-4.5,7.6-9,15.1-13.6,22.7c-0.9,1.5-0.8,2.3,0.8,3.2c15.6,9.3,31.3,18.7,46.9,28.1
		c1.5,0.9,2.2,0.7,3.1-0.8c4.5-7.7,9.2-15.4,13.8-23c0.3-0.4,0.5-0.9,0.7-1.5C715.8,457.3,699,447.3,682,437.1z M697.5,421.9
		c3.6,0.5,7,1,10.4,1.5c0.3,0,0.9-0.1,1-0.3c1.4-2.2,2.7-4.4,4.1-6.8c-3.6-0.5-7-1-10.3-1.4c-0.4,0-1,0.2-1.3,0.6
		C700.1,417.5,698.9,419.6,697.5,421.9z M716,451.8c3.1,1.9,5.9,3.6,8.8,5.3c0.4,0.2,1.1,0.4,1.4,0.2c2.1-1.4,4.2-2.9,6.5-4.6
		c-3.1-1.9-6-3.6-8.8-5.2c-0.4-0.2-1.3-0.2-1.7,0.1C720.1,448.7,718.2,450.2,716,451.8z M690.6,436.6c3.2,1.9,6.1,3.7,9,5.4
		c0.3,0.2,0.8,0.3,1.1,0.1c2.2-1.5,4.3-3,6.6-4.7c-3.1-1.9-5.9-3.6-8.8-5.2c-0.4-0.2-1.3-0.3-1.7,0
		C694.8,433.5,692.9,434.9,690.6,436.6z M720,445c-3.2-1.9-5.9-3.6-8.8-5.2c-0.4-0.2-1.2-0.3-1.5-0.1c-2.1,1.4-4.1,2.9-6.3,4.5
		c3.1,1.9,5.9,3.6,8.8,5.3c0.4,0.2,1.1,0.4,1.4,0.2C715.6,448.2,717.6,446.7,720,445z M727.6,418.4c-3.5-0.5-7-1-10.4-1.5
		c-0.3,0-0.8,0.2-1,0.5c-1.3,2.1-2.6,4.3-4,6.7c3.6,0.5,7,1,10.4,1.5c0.3,0,0.9-0.3,1.1-0.6C725,422.8,726.2,420.7,727.6,418.4z
		 M726.8,426.1c3.5,0.5,6.9,1,10.4,1.5c0.3,0,0.8-0.2,1-0.5c1.3-2.1,2.6-4.3,4-6.7c-3.6-0.5-6.9-1-10.3-1.5c-0.4,0-0.9,0.4-1.2,0.7
		C729.4,421.8,728.3,423.8,726.8,426.1z M741.4,428.2c2,0.3,4,0.5,5.9,0.9c1.3,0.2,1.7-0.3,1.8-1.5c0.1-1.4,0.5-2.7,0.5-4.1
		c0-0.7-0.3-1.9-0.5-2c-1.3-0.1-3.1-0.5-3.7,0.2C743.9,423.6,742.8,425.9,741.4,428.2z M735.2,463.2c1.1-1.8,2.2-3.5,3.1-5.2
		c0.3-0.5,0.3-1.7,0.1-1.8c-1-0.6-2.6-1.6-3.3-1.3c-2.2,1.1-4.1,2.8-6.3,4.4C731,460.7,733,461.9,735.2,463.2z M694.6,429.8
		c-1.8-1.1-3.3-2.1-4.9-2.9c-0.4-0.2-1.5-0.2-1.7,0.1c-1.3,1.9-2.4,3.8-3.8,6.2c1.6,0.4,3.1,1.3,4,0.9
		C690.4,433.1,692.3,431.4,694.6,429.8z M698.3,414.2c-2-0.3-3.8-0.7-5.7-0.8c-0.4,0-1.2,0.7-1.3,1.1c-0.4,1.5-0.6,3.1-0.7,4.6
		c0,0.6,0.4,1.7,0.7,1.8c1,0.2,2.3,1.1,3.1-0.4C695.7,418.5,697,416.5,698.3,414.2z"/>
	<path class="st0" d="M685.9,467.6c-3.2-1.9-6.5-3.9-9.7-5.8c-1.6-1-2.1-2.4-1.3-3.5c1-1.5,2.4-1.3,3.8-0.5
		c6.5,3.9,13.1,7.9,19.7,11.8c1.4,0.8,2.1,2,1.4,3.6c-0.6,1.3-2.1,1.5-3.9,0.5C692.5,471.5,689.2,469.5,685.9,467.6z"/>
	<path class="st0" d="M690.9,459.2c-3.2-1.9-6.5-3.9-9.7-5.8c-1.6-1-2.1-2.3-1.3-3.5c0.7-1.2,2.2-1.5,3.8-0.5
		c6.6,3.9,13.2,7.9,19.8,11.8c1.5,0.9,2,2.4,1.3,3.6c-0.7,1.2-2.1,1.4-3.7,0.5C697.6,463.2,694.2,461.2,690.9,459.2z"/>
</g>
<g>
	<path class="st0" d="M230.3-57.1c29.8,5.7,59.7,11.4,89.5,17.1c4.5,2.9,5.5,6.8,4.5,12c-3.7,18.5-7.1,37-10.7,55.5
		c-0.5,2.6-1.4,5.1-2.2,7.7c-0.1,0.4-0.2,0.9-0.1,1.3c1.1,3.9,2.4,7.7,3.3,11.6c1.4,6.1-1.3,10-7.3,11.3
		c-16.1,3.4-32.3,6.8-48.4,10.3c-12.4,2.7-24.9,5.4-37.3,8.1c-1.4-0.3-2.7-0.5-4.1-0.8c-3.1-2.2-4.8-5.1-5.2-8.8
		c-0.2-1.6-0.6-3.1-1-4.6c-1.6-7.1,0.7-10.8,7.8-12.3c15.1-3.2,30.2-6.4,45.3-9.6c8.1-1.7,16.1-3.4,24.2-5.2c0-0.2,0-0.3,0-0.5
		c-1-0.2-2.1-0.4-3.1-0.6c-22.3-4.3-44.6-8.5-67-12.8c-6.4-1.2-9.1-5.2-7.9-11.6c3.7-19.5,7.5-39,11.1-58.5
		C222.7-52.8,225.1-56,230.3-57.1z M309.2,12.7c0.2-1.1,0.4-2,0.5-2.9c2.5-13.2,4.9-26.3,7.6-39.5c0.5-2.7-0.1-3.6-2.8-4.2
		c-27.2-5.1-54.4-10.3-81.6-15.6c-2.6-0.5-3.5,0.1-4,2.7c-2.4,13.4-5,26.7-7.6,40.1c-0.1,0.8-0.2,1.5-0.3,2.5
		C250.4,1.5,279.6,7.1,309.2,12.7z M295,42.5c-5.4,1.1-10.5,2.2-15.6,3.3c-0.5,0.1-1.2,0.6-1.3,1c-0.8,3.8-1.5,7.6-2.3,11.8
		c5.4-1.2,10.5-2.2,15.5-3.4c0.6-0.1,1.4-0.9,1.5-1.5C293.6,50.2,294.2,46.5,295,42.5z M252.9,9.6c-5.4-1-10.4-2-15.3-2.9
		c-0.7-0.1-1.7,0.1-2,0.5c-2.3,3.1-4.5,6.4-6.9,9.9c5.5,1,10.4,2,15.4,2.9c0.7,0.1,2-0.4,2.4-1C248.6,16.1,250.6,13,252.9,9.6z
		 M297.1,18c-5.6-1.1-10.6-2-15.7-3c-0.5-0.1-1.4,0-1.6,0.4c-2.3,3.2-4.5,6.5-6.9,10.1c5.5,1,10.3,2,15.2,2.8c0.8,0.1,2-0.3,2.4-0.9
		C292.7,24.6,294.7,21.5,297.1,18z M250.8,21.3c5.5,1.1,10.4,2,15.3,2.9c0.7,0.1,1.9-0.2,2.3-0.7c2.3-3.1,4.3-6.3,6.7-9.7
		c-5.4-1-10.4-2-15.3-2.9c-0.7-0.1-1.7,0.1-2.1,0.5C255.4,14.5,253.3,17.7,250.8,21.3z M253.9,63.2c5.3-1.1,10.5-2.2,15.6-3.3
		c0.5-0.1,1-0.7,1.1-1.1c0.8-3.7,1.5-7.5,2.3-11.7c-5.4,1.2-10.5,2.2-15.6,3.4c-0.5,0.1-1.1,0.9-1.2,1.4
		C255.3,55.5,254.6,59.2,253.9,63.2z M250.9,51.8c-5.2,1.1-10.4,2.1-15.6,3.3c-0.4,0.1-1,0.7-1.1,1.2c-0.8,3.7-1.5,7.5-2.3,11.6
		c5.4-1.1,10.5-2.2,15.5-3.3c0.5-0.1,1.1-1,1.3-1.7C249.5,59.4,250.1,55.9,250.9,51.8z M229,56.5c-3.1,0.6-5.9,1.3-8.8,1.8
		c-2,0.3-2.3,1.4-1.8,3.2c0.5,2,0.8,4.1,1.4,6.1c0.3,1,1.4,2.6,1.7,2.5c1.9-0.5,4.7-1,5.2-2.2C227.9,64.3,228.2,60.5,229,56.5z
		 M219.5,3.3c-0.6,3.2-1.3,6.1-1.6,9c-0.1,0.9,0.4,2.6,0.8,2.7c1.8,0.3,4.5,1,5.4,0.1c2.6-2.8,4.4-6.2,6.7-9.6
		C226.9,4.7,223.4,4.1,219.5,3.3z M295,29.7c3.2,0.6,5.8,1.2,8.4,1.5c0.7,0.1,2.2-0.5,2.3-1c0.8-3.3,1.4-6.7,2.2-10.9
		c-2.5,0.3-5.1-0.2-6.1,0.9C299.2,22.9,297.4,26.2,295,29.7z M297.8,53.9c3-0.6,5.8-1.1,8.5-1.9c0.6-0.2,1.3-1.6,1.2-2.3
		c-0.3-2.3-0.8-4.7-1.4-7c-0.3-0.9-1.4-2.2-2-2.1c-1.5,0.3-3.8-0.4-4.3,2.1C299.2,46.4,298.5,50,297.8,53.9z"/>
	<path class="st0" d="M287.7-28.7c5.7,1.1,11.3,2.1,17,3.2c2.8,0.6,4.3,2.2,3.7,4.4c-0.7,2.6-2.7,3.2-5.2,2.7
		c-11.4-2.2-22.8-4.4-34.2-6.5c-2.5-0.5-4.1-1.7-3.9-4.4c0.2-2.2,2.3-3.3,5.3-2.7C276.2-31,281.9-29.8,287.7-28.7z"/>
	<path class="st0" d="M284.9-14.1c5.6,1.1,11.3,2.1,16.9,3.2c2.8,0.6,4.2,2.1,3.7,4.3c-0.4,2.2-2.3,3.3-5.1,2.7
		c-11.5-2.2-23-4.3-34.4-6.6c-2.7-0.5-4.2-2.4-3.8-4.4c0.4-2.1,2.3-3.1,5.1-2.6C273.3-16.4,279.1-15.2,284.9-14.1z"/>
</g>
<g>
	<path class="st0" d="M488.2,514.8c38.9,2.8,77.8,5.5,116.6,8.3c6.2,3,8.1,7.8,7.5,14.6c-2,24.1-3.5,48.2-5.3,72.3
		c-0.3,3.4-1.1,6.7-1.6,10.1c-0.1,0.6-0.1,1.2,0.1,1.7c2,4.8,4.2,9.5,5.9,14.3c2.7,7.5-0.1,13-7.6,15.5
		c-20.1,6.8-40.1,13.5-60.2,20.3c-15.5,5.3-30.9,10.6-46.3,15.9c-1.8-0.1-3.6-0.3-5.3-0.4c-4.2-2.3-6.9-5.7-7.9-10.5
		c-0.4-2-1.2-3.9-1.9-5.8c-3.1-8.9-0.7-13.9,8-16.8c18.8-6.4,37.5-12.7,56.3-19c10-3.4,20.1-6.8,30.1-10.2c0-0.2-0.1-0.4-0.1-0.6
		c-1.4-0.1-2.7-0.2-4.1-0.3c-29.1-2.1-58.2-4.1-87.3-6.2c-8.3-0.6-12.4-5.2-11.8-13.6c1.8-25.4,3.8-50.8,5.3-76.2
		C479.1,521.5,481.7,517,488.2,514.8z M599.2,592c0.1-1.5,0.2-2.6,0.3-3.7c1.2-17.1,2.3-34.3,3.7-51.4c0.3-3.5-0.7-4.6-4.2-4.9
		c-35.4-2.4-70.9-4.9-106.3-7.6c-3.3-0.2-4.4,0.7-4.7,4c-1.1,17.4-2.4,34.8-3.6,52.2c-0.1,1,0,2,0,3.2
		C522.6,586.5,560.6,589.2,599.2,592z M585.6,632c-6.7,2.3-13.1,4.4-19.4,6.6c-0.6,0.2-1.4,0.9-1.5,1.5c-0.5,5-0.8,9.9-1.2,15.4
		c6.8-2.3,13-4.4,19.2-6.6c0.7-0.3,1.6-1.3,1.7-2.1C584.9,642,585.2,637.2,585.6,632z M527,596.4c-7.1-0.5-13.5-1-20-1.4
		c-0.8,0-2.2,0.3-2.5,0.9c-2.5,4.4-4.7,8.8-7.2,13.6c7.1,0.5,13.6,1,20,1.3c1,0,2.4-0.8,2.9-1.6C522.5,605.3,524.6,601.1,527,596.4z
		 M584.6,600.5c-7.2-0.5-13.8-1-20.4-1.4c-0.7,0-1.7,0.2-2,0.7c-2.4,4.5-4.8,9-7.3,13.9c7.1,0.5,13.5,1,19.8,1.3c1,0,2.5-0.7,3-1.5
		C580,609.5,582.1,605.3,584.6,600.5z M526.1,611.6c7.2,0.5,13.5,1,19.9,1.3c0.9,0,2.4-0.5,2.8-1.2c2.4-4.3,4.6-8.6,7.1-13.4
		c-7-0.5-13.5-1-20-1.4c-0.9,0-2.2,0.3-2.6,1C530.9,602.3,528.7,606.7,526.1,611.6z M536.3,664.6c6.6-2.2,13-4.3,19.4-6.5
		c0.6-0.2,1.2-1,1.3-1.6c0.4-4.9,0.7-9.8,1.1-15.2c-6.8,2.3-13.1,4.4-19.4,6.6c-0.6,0.2-1.3,1.3-1.3,2
		C537,654.6,536.7,659.4,536.3,664.6z M530.8,650.6c-6.5,2.2-13,4.3-19.4,6.5c-0.6,0.2-1.2,1.1-1.3,1.7c-0.4,4.9-0.7,9.8-1.1,15.2
		c6.7-2.2,13-4.3,19.3-6.6c0.7-0.2,1.3-1.5,1.4-2.3C530.1,660.5,530.4,655.9,530.8,650.6z M503.6,659.7c-3.8,1.3-7.4,2.5-11,3.6
		c-2.5,0.7-2.7,2.1-1.9,4.3c1,2.5,1.6,5.1,2.7,7.5c0.5,1.2,2.1,3.1,2.6,3c2.3-0.9,5.8-2,6.3-3.6C503.4,669.9,503.2,665,503.6,659.7z
		 M483.5,593.4c-0.3,4.1-0.7,7.9-0.8,11.7c0,1.1,0.9,3.2,1.5,3.3c2.3,0.2,5.9,0.6,6.9-0.7c2.9-3.9,4.7-8.5,7.1-13.2
		C493.1,594.1,488.6,593.8,483.5,593.4z M583.6,615.7c4.1,0.3,7.6,0.7,11,0.7c1,0,2.7-1,2.8-1.7c0.6-4.3,0.7-8.7,1.1-14.2
		c-3.1,0.7-6.5,0.5-7.7,2C588,606.4,586.2,610.9,583.6,615.7z M590.9,646.2c3.8-1.2,7.3-2.2,10.6-3.7c0.8-0.3,1.5-2.2,1.2-3.1
		c-0.7-2.9-1.7-5.9-2.9-8.6c-0.5-1.1-2.2-2.6-2.8-2.4c-1.9,0.6-4.9,0.1-5.1,3.4C591.6,636.3,591.2,641,590.9,646.2z"/>
	<path class="st0" d="M565.6,542.3c7.4,0.5,14.7,1,22.1,1.6c3.7,0.3,5.8,2.2,5.4,5c-0.5,3.5-3,4.4-6.2,4.2
		c-14.9-1.1-29.7-2.1-44.6-3.2c-3.2-0.2-5.5-1.6-5.6-5c-0.1-2.9,2.4-4.5,6.4-4.2C550.6,541.3,558.1,541.8,565.6,542.3z"/>
	<path class="st0" d="M564.2,561.4c7.3,0.5,14.7,1,22,1.6c3.7,0.3,5.6,2.1,5.4,4.9c-0.2,2.8-2.5,4.5-6.1,4.3
		c-15-1-29.9-2.1-44.8-3.2c-3.5-0.3-5.7-2.4-5.4-5.1c0.2-2.8,2.5-4.3,6.1-4.1C549,560.3,556.6,560.8,564.2,561.4z"/>
</g>
<g>
	<path class="st0" d="M197.6,497.9c5.9-23.4,11.8-46.8,17.7-70.2c2.5-3.5,5.6-4.1,9.7-3c14.5,3.8,29,7.3,43.5,11c2,0.5,4,1.4,6,2.1
		c0.3,0.1,0.7,0.2,1,0.1c3.1-0.7,6.2-1.5,9.4-2.1c4.9-0.8,7.9,1.5,8.7,6.3c2,13,3.9,25.9,5.9,38.9c1.5,10,3.1,20,4.7,30
		c-0.3,1.1-0.5,2.1-0.8,3.2c-1.9,2.3-4.2,3.6-7.2,3.7c-1.2,0-2.5,0.3-3.7,0.5c-5.7,0.9-8.5-1.1-9.4-6.7c-1.9-12.1-3.7-24.3-5.5-36.4
		c-1-6.5-2-13-3-19.5c-0.1,0-0.2,0-0.4,0c-0.2,0.8-0.4,1.6-0.6,2.4c-4.4,17.5-8.8,35-13.2,52.5c-1.3,5-4.5,7-9.5,5.7
		c-15.3-3.8-30.6-7.8-45.9-11.5C200.6,504.1,198.2,502.1,197.6,497.9z M256.6,438.5c-0.9-0.2-1.6-0.4-2.3-0.6
		c-10.3-2.6-20.7-5.1-31-7.8c-2.1-0.6-2.9-0.1-3.4,2c-5.3,21.3-10.7,42.7-16.1,64c-0.5,2-0.1,2.8,2,3.3c10.5,2.6,21,5.2,31.4,7.9
		c0.6,0.1,1.2,0.2,1.9,0.4C245,484.7,250.8,461.8,256.6,438.5z M279.5,451.2c0.7,4.3,1.3,8.4,1.9,12.5c0.1,0.4,0.4,1,0.8,1.1
		c3,0.8,6,1.5,9.3,2.4c-0.7-4.4-1.3-8.4-1.9-12.4c-0.1-0.5-0.6-1.1-1.1-1.3C285.6,452.6,282.7,452,279.5,451.2z M251.5,483
		c-1.1,4.3-2.1,8.1-3,12c-0.1,0.5,0,1.4,0.3,1.6c2.4,2,4.9,3.8,7.5,5.9c1.1-4.3,2.1-8.2,3-12.1c0.1-0.6-0.2-1.6-0.7-2
		C256.4,486.7,254.1,485,251.5,483z M260.2,448.3c-1.1,4.4-2.1,8.3-3.1,12.3c-0.1,0.4,0,1.1,0.2,1.3c2.5,2,5,3.9,7.7,6
		c1.1-4.3,2.1-8.1,3-11.9c0.1-0.6-0.1-1.6-0.6-2C265.2,452.1,262.9,450.4,260.2,448.3z M260.7,485.2c1.1-4.3,2.1-8.1,3-12
		c0.1-0.6,0-1.5-0.4-1.8c-2.3-1.9-4.8-3.7-7.4-5.7c-1.1,4.2-2.1,8.1-3,12c-0.1,0.5,0,1.4,0.3,1.7C255.5,481.3,258,483.1,260.7,485.2
		z M294.1,484.7c-0.6-4.2-1.2-8.4-1.9-12.6c-0.1-0.4-0.5-0.8-0.9-0.9c-2.9-0.8-5.9-1.5-9.1-2.3c0.7,4.4,1.3,8.5,1.9,12.5
		c0.1,0.4,0.6,0.9,1.1,1C288.1,483.2,291,483.9,294.1,484.7z M284.9,486.6c0.6,4.2,1.2,8.4,1.9,12.5c0.1,0.4,0.5,0.8,0.9,0.9
		c2.9,0.8,5.9,1.5,9.1,2.3c-0.6-4.3-1.2-8.4-1.9-12.5c-0.1-0.4-0.8-0.9-1.3-1.1C290.9,488,288.1,487.4,284.9,486.6z M287.6,504.2
		c0.4,2.5,0.8,4.8,1,7.1c0.2,1.6,1,1.9,2.4,1.6c1.6-0.3,3.3-0.4,4.9-0.8c0.8-0.2,2.1-1,2.1-1.3c-0.3-1.5-0.6-3.8-1.5-4.2
		C293.8,505.4,290.8,505,287.6,504.2z M245,509.3c2.5,0.6,4.7,1.3,7,1.7c0.7,0.1,2.1-0.2,2.2-0.5c0.4-1.4,1-3.5,0.3-4.3
		c-2.1-2.2-4.7-3.8-7.3-5.8C246.5,503.5,245.8,506.2,245,509.3z M269.4,450.6c0.6-2.5,1.2-4.5,1.6-6.6c0.1-0.6-0.3-1.7-0.7-1.9
		c-2.6-0.8-5.3-1.4-8.5-2.2c0.1,2-0.4,4,0.4,4.9C264.2,446.9,266.8,448.5,269.4,450.6z M288.7,449.5c-0.4-2.4-0.6-4.7-1.1-6.9
		c-0.1-0.5-1.2-1.1-1.8-1.1c-1.9,0.1-3.8,0.4-5.6,0.8c-0.7,0.2-1.8,1-1.8,1.5c0.1,1.2-0.5,3,1.5,3.5
		C282.8,448,285.7,448.7,288.7,449.5z"/>
	<path class="st0" d="M222.7,453.7c1.1-4.4,2.2-8.9,3.4-13.3c0.6-2.2,2-3.3,3.6-2.7c2,0.7,2.4,2.3,1.9,4.2
		c-2.3,8.9-4.5,17.9-6.8,26.8c-0.5,1.9-1.5,3.2-3.7,2.9c-1.8-0.3-2.5-2-1.9-4.3C220.4,462.7,221.6,458.2,222.7,453.7z"/>
	<path class="st0" d="M234.2,456.5c1.1-4.4,2.2-8.9,3.3-13.3c0.6-2.2,1.9-3.2,3.6-2.8c1.7,0.4,2.5,2,1.9,4.2c-2.2,9-4.5,18-6.8,27
		c-0.5,2.1-2.1,3.2-3.7,2.8c-1.7-0.4-2.4-2-1.8-4.2C231.9,465.7,233,461.1,234.2,456.5z"/>
</g>
<g>
	<path class="st0" d="M121.7,623.2c-25.9,3.6-51.8,7.2-77.8,10.9c-4.5-1.1-6.4-4-7-8.5c-2.1-16.1-4.4-32.1-6.6-48.2
		c-0.3-2.3-0.2-4.6-0.4-6.8c0-0.4-0.1-0.8-0.3-1.1c-1.9-2.9-4.1-5.6-5.9-8.6c-2.8-4.6-1.8-8.5,2.8-11.3
		c12.2-7.3,24.5-14.5,36.7-21.8c9.4-5.6,18.8-11.3,28.2-16.9c1.2-0.2,2.4-0.3,3.6-0.5c3.1,0.9,5.3,2.8,6.7,5.8
		c0.6,1.2,1.4,2.4,2.1,3.5c3.3,5.4,2.4,9-2.9,12.2c-11.4,6.8-22.9,13.6-34.3,20.4c-6.1,3.6-12.2,7.3-18.3,10.9
		c0,0.1,0.1,0.3,0.1,0.4c0.9-0.1,1.8-0.3,2.7-0.4c19.4-2.7,38.8-5.4,58.2-8.1c5.6-0.8,8.9,1.7,9.6,7.3c2.4,16.9,4.6,33.9,7.2,50.8
		C126.7,617.5,125.7,620.9,121.7,623.2z M38,588c0.1,1,0.2,1.7,0.3,2.5c1.6,11.4,3.3,22.8,4.7,34.3c0.3,2.4,1.1,2.9,3.4,2.6
		c23.6-3.4,47.2-6.7,70.8-9.9c2.2-0.3,2.8-1.1,2.5-3.3c-1.7-11.6-3.3-23.2-4.9-34.8c-0.1-0.7-0.3-1.3-0.4-2.1
		C89.1,580.9,63.7,584.4,38,588z M41.4,559.9c4.1-2.4,8-4.7,11.8-7c0.4-0.2,0.8-0.8,0.8-1.2c-0.4-3.3-0.9-6.6-1.4-10.3
		c-4.1,2.5-7.9,4.7-11.7,7c-0.4,0.3-0.9,1.1-0.8,1.6C40.4,553.2,40.9,556.4,41.4,559.9z M84.8,575c4.7-0.7,9-1.2,13.3-1.9
		c0.6-0.1,1.4-0.5,1.5-1c1-3.2,1.9-6.5,2.9-10c-4.7,0.7-9,1.2-13.3,1.9c-0.6,0.1-1.5,0.8-1.7,1.5C86.5,568.6,85.7,571.6,84.8,575z
		 M46.4,580.4c4.8-0.7,9.2-1.3,13.6-1.9c0.4-0.1,1.1-0.4,1.2-0.7c1-3.3,1.9-6.6,2.9-10.2c-4.8,0.7-9,1.2-13.2,1.9
		c-0.7,0.1-1.5,0.8-1.7,1.4C48.2,573.8,47.4,576.9,46.4,580.4z M83.3,564.9c-4.8,0.7-9,1.2-13.2,1.9c-0.6,0.1-1.5,0.6-1.7,1.2
		c-1,3.1-1.8,6.3-2.8,9.8c4.7-0.7,9-1.2,13.3-1.9c0.6-0.1,1.4-0.5,1.6-1C81.4,571.7,82.3,568.5,83.3,564.9z M69.2,531.5
		c-4,2.4-7.9,4.7-11.8,7c-0.3,0.2-0.6,0.9-0.6,1.2c0.4,3.3,0.9,6.5,1.4,10.1c4.1-2.4,8-4.7,11.8-7.1c0.4-0.2,0.7-1,0.6-1.5
		C70.1,538.2,69.7,535,69.2,531.5z M74.8,540c4-2.3,7.9-4.6,11.8-7c0.3-0.2,0.6-0.9,0.6-1.3c-0.4-3.3-0.9-6.5-1.4-10.1
		c-4.1,2.4-7.9,4.7-11.7,7c-0.4,0.2-0.6,1.2-0.6,1.7C73.8,533.4,74.3,536.4,74.8,540z M91.3,530.2c2.3-1.4,4.5-2.7,6.7-3.9
		c1.5-0.8,1.5-1.8,0.6-3.1c-1-1.5-1.8-3.1-2.8-4.6c-0.5-0.7-1.8-1.8-2.1-1.6c-1.4,0.9-3.6,2.1-3.6,3.3
		C90,523.4,90.9,526.6,91.3,530.2z M113.8,570.9c-0.4-2.8-0.6-5.3-1.1-7.8c-0.1-0.7-1-2-1.4-1.9c-1.6,0.2-4,0.5-4.4,1.4
		c-1.3,3-1.9,6.3-2.8,9.7C107.4,571.8,110.4,571.4,113.8,570.9z M44.9,570.2c-2.8,0.4-5.1,0.6-7.3,1.1c-0.6,0.1-1.6,1-1.6,1.5
		c0.2,2.9,0.7,5.8,1.2,9.5c2-0.9,4.2-1.3,4.7-2.4C43.4,577,43.9,573.8,44.9,570.2z M35.9,551.3c-2.3,1.3-4.5,2.5-6.5,3.9
		c-0.5,0.3-0.7,1.6-0.4,2.2c0.9,1.8,1.9,3.6,3.1,5.3c0.5,0.6,1.8,1.4,2.2,1.2c1.2-0.6,3.2-0.7,2.9-2.9
		C36.8,557.8,36.4,554.7,35.9,551.3z"/>
	<path class="st0" d="M67,615.9c-4.9,0.7-9.8,1.4-14.7,2c-2.5,0.3-4.1-0.6-4.2-2.5c-0.1-2.3,1.3-3.3,3.5-3.6
		c9.9-1.4,19.8-2.8,29.7-4.2c2.1-0.3,3.8,0.3,4.4,2.5c0.5,1.9-1,3.3-3.6,3.7C77,614.5,72,615.2,67,615.9z"/>
	<path class="st0" d="M65.3,603.2c-4.9,0.7-9.8,1.4-14.7,2c-2.5,0.3-4-0.6-4.3-2.5c-0.3-1.9,1-3.3,3.4-3.6c10-1.4,19.9-2.8,29.9-4.2
		c2.3-0.3,4,0.8,4.3,2.6c0.3,1.9-1,3.2-3.4,3.5C75.4,601.8,70.3,602.5,65.3,603.2z"/>
</g>
<g>
	<path class="st0" d="M528.1,78.7c12.5,15.6,24.9,31.2,37.4,46.9c1,3.4-0.1,5.8-2.9,7.9c-9.8,7.6-19.4,15.4-29.1,23.1
		c-1.4,1.1-2.9,1.9-4.4,2.9c-0.2,0.2-0.5,0.4-0.6,0.6c-1.1,2.4-2.1,4.9-3.3,7.2c-1.9,3.6-4.9,4.5-8.5,2.5
		c-9.5-5.2-19-10.4-28.6-15.6c-7.4-4-14.7-8-22.1-12c-0.6-0.7-1.1-1.4-1.7-2.1c-0.6-2.4-0.2-4.6,1.2-6.6c0.6-0.8,1-1.8,1.5-2.7
		c2.3-4.2,5-5.1,9.1-2.8c8.9,4.9,17.8,9.7,26.7,14.6c4.8,2.6,9.5,5.2,14.3,7.8c0.1-0.1,0.1-0.2,0.2-0.2c-0.4-0.5-0.9-1.1-1.3-1.6
		c-9.3-11.7-18.7-23.4-28-35.1c-2.7-3.4-2.3-6.5,1-9.2c10.2-8.1,20.5-16.2,30.6-24.5C522.5,77.6,525.1,77,528.1,78.7z M537.6,147.3
		c0.6-0.5,1-0.8,1.5-1.2c6.9-5.5,13.7-11,20.7-16.5c1.4-1.1,1.5-1.9,0.4-3.3c-11.4-14.2-22.8-28.4-34.1-42.7
		c-1.1-1.3-1.8-1.4-3.1-0.4C516,89,509,94.5,502,100.1c-0.4,0.3-0.8,0.7-1.2,1.1C513,116.5,525.2,131.8,537.6,147.3z M517.8,156.1
		c-3.2-1.7-6.2-3.4-9.2-5c-0.3-0.2-0.8-0.2-1.1,0c-2,1.6-4,3.2-6.2,4.9c3.2,1.8,6.2,3.4,9.2,4.9c0.4,0.2,1.1,0.1,1.4-0.1
		C513.8,159.3,515.7,157.8,517.8,156.1z M510.9,121.6c-2.3-2.8-4.3-5.4-6.4-8c-0.3-0.3-0.9-0.7-1.2-0.6c-2.5,0.6-5,1.3-7.7,2
		c2.3,2.9,4.3,5.5,6.4,8c0.3,0.4,1.1,0.7,1.6,0.5C506,123.1,508.2,122.4,510.9,121.6z M529.3,144.8c-2.3-2.9-4.4-5.6-6.6-8.2
		c-0.2-0.3-0.7-0.6-1-0.5c-2.5,0.6-5,1.3-7.8,2.1c2.3,2.9,4.3,5.4,6.4,7.9c0.3,0.4,1.1,0.7,1.6,0.6
		C524.3,146.2,526.6,145.5,529.3,144.8z M504.8,126.6c2.3,2.9,4.3,5.4,6.4,8c0.3,0.4,1,0.7,1.4,0.6c2.4-0.6,4.9-1.3,7.5-2
		c-2.3-2.8-4.3-5.4-6.4-8c-0.3-0.3-0.9-0.7-1.3-0.6C510,125.1,507.6,125.8,504.8,126.6z M488.4,148.8c3.1,1.7,6.2,3.4,9.2,5.1
		c0.3,0.1,0.8,0.1,1.1-0.1c2-1.5,3.9-3.1,6.1-4.9c-3.2-1.8-6.2-3.4-9.2-5c-0.3-0.2-0.9,0-1.2,0.2
		C492.4,145.6,490.5,147.2,488.4,148.8z M491.8,141.9c-3.1-1.7-6.1-3.4-9.2-5c-0.3-0.1-0.8-0.1-1.1,0.1c-2,1.5-3.9,3.1-6.1,4.8
		c3.2,1.7,6.1,3.4,9.2,5c0.3,0.2,1,0,1.3-0.3C487.8,145.1,489.6,143.6,491.8,141.9z M478.8,134.8c-1.8-1-3.5-1.9-5.2-2.9
		c-1.1-0.7-1.7-0.3-2.3,0.8c-0.6,1.2-1.4,2.4-1.9,3.6c-0.3,0.6-0.4,1.9-0.2,2c1.1,0.6,2.8,1.5,3.6,1.1
		C474.9,138.3,476.7,136.5,478.8,134.8z M496.8,104.2c-1.7,1.3-3.2,2.5-4.7,3.8c-0.4,0.4-0.9,1.5-0.7,1.7c0.8,0.9,1.8,2.4,2.7,2.3
		c2.5-0.3,4.9-1.2,7.5-1.9C499.9,108.1,498.5,106.2,496.8,104.2z M523.2,149.7c1.3,1.7,2.4,3.1,3.6,4.4c0.3,0.4,1.3,0.7,1.6,0.5
		c1.8-1.3,3.6-2.8,5.7-4.5c-1.4-0.9-2.5-2.3-3.4-2.2C528.3,148.1,525.9,149,523.2,149.7z M514.3,163c1.8,1,3.4,2,5.1,2.7
		c0.4,0.2,1.3-0.2,1.6-0.6c0.9-1.3,1.6-2.7,2.3-4.1c0.2-0.6,0.2-1.7-0.1-1.9c-0.9-0.5-1.7-1.8-3.1-0.8
		C518.2,159.9,516.4,161.4,514.3,163z"/>
	<path class="st0" d="M544.6,117.4c2.4,3,4.7,5.9,7.1,8.9c1.2,1.5,1.2,3,0,3.8c-1.5,1-2.7,0.4-3.7-0.9c-4.8-6-9.5-11.9-14.3-17.9
		c-1-1.3-1.3-2.6,0-3.8c1.1-1,2.5-0.6,3.8,0.9C539.8,111.4,542.2,114.4,544.6,117.4z"/>
	<path class="st0" d="M537,123.5c2.4,3,4.7,5.9,7.1,8.9c1.2,1.5,1.2,2.8,0,3.8c-1.1,0.9-2.6,0.6-3.7-0.8c-4.8-6-9.6-12-14.4-18
		c-1.1-1.4-1.1-3,0-3.8c1.1-0.9,2.5-0.6,3.7,0.9C532.1,117.4,534.6,120.4,537,123.5z"/>
</g>
<g>
	<path class="st0" d="M847.5,322.3c-17.1-10.3-34.3-20.5-51.4-30.8c-2.2-2.8-1.9-5.4-0.1-8.4c6.5-10.6,12.8-21.2,19.2-31.9
		c0.9-1.5,2-2.8,3.1-4.2c0.2-0.2,0.3-0.5,0.4-0.8c0.2-2.6,0.3-5.3,0.6-7.9c0.5-4.1,3-5.9,7.1-5.3c10.7,1.5,21.5,3.1,32.2,4.6
		c8.3,1.2,16.6,2.3,24.9,3.5c0.8,0.5,1.6,0.9,2.4,1.4c1.4,2,1.8,4.2,1.2,6.6c-0.3,1-0.3,2.1-0.5,3.1c-0.6,4.8-2.9,6.5-7.6,5.8
		c-10.1-1.4-20.1-2.9-30.1-4.3c-5.4-0.8-10.8-1.5-16.1-2.3c0,0.1-0.1,0.2-0.1,0.3c0.6,0.4,1.2,0.7,1.8,1.1
		c12.8,7.7,25.6,15.4,38.5,23.1c3.7,2.2,4.4,5.3,2.2,8.9c-6.7,11.2-13.5,22.4-20.1,33.6C853.2,321.3,851,322.8,847.5,322.3z
		 M814.6,261.3c-0.4,0.6-0.7,1.1-1,1.6c-4.5,7.6-9,15.1-13.6,22.7c-0.9,1.5-0.8,2.3,0.8,3.2c15.6,9.3,31.3,18.7,46.9,28.1
		c1.5,0.9,2.2,0.7,3.1-0.8c4.5-7.7,9.2-15.4,13.8-23c0.3-0.4,0.5-0.9,0.7-1.5C848.4,281.5,831.6,271.5,814.6,261.3z M830.1,246.1
		c3.6,0.5,7,1,10.4,1.5c0.3,0,0.9-0.1,1-0.3c1.4-2.2,2.7-4.4,4.1-6.8c-3.6-0.5-7-1-10.3-1.4c-0.4,0-1,0.2-1.3,0.6
		C832.7,241.7,831.5,243.8,830.1,246.1z M848.6,276c3.1,1.9,5.9,3.6,8.8,5.3c0.4,0.2,1.1,0.4,1.4,0.2c2.1-1.4,4.2-2.9,6.5-4.6
		c-3.1-1.9-6-3.6-8.8-5.2c-0.4-0.2-1.3-0.2-1.7,0.1C852.8,272.9,850.9,274.4,848.6,276z M823.3,260.8c3.2,1.9,6.1,3.7,9,5.4
		c0.3,0.2,0.8,0.3,1.1,0.1c2.2-1.5,4.3-3,6.6-4.7c-3.2-1.9-5.9-3.6-8.8-5.2c-0.4-0.2-1.3-0.3-1.7,0
		C827.4,257.7,825.5,259.1,823.3,260.8z M852.6,269.2c-3.2-1.9-5.9-3.6-8.8-5.2c-0.4-0.2-1.2-0.3-1.5-0.1c-2.1,1.4-4.1,2.9-6.3,4.5
		c3.1,1.9,5.9,3.6,8.8,5.3c0.4,0.2,1.1,0.4,1.4,0.2C848.3,272.4,850.3,270.9,852.6,269.2z M860.2,242.6c-3.5-0.5-7-1-10.4-1.5
		c-0.3,0-0.8,0.2-1,0.5c-1.3,2.1-2.6,4.3-4,6.7c3.6,0.5,7,1,10.4,1.5c0.3,0,0.9-0.3,1.1-0.6C857.6,247,858.8,244.9,860.2,242.6z
		 M859.5,250.3c3.5,0.5,6.9,1,10.4,1.5c0.3,0,0.8-0.2,1-0.5c1.3-2.1,2.6-4.3,4-6.7c-3.6-0.5-6.9-1-10.3-1.5c-0.4,0-0.9,0.4-1.2,0.7
		C862.1,246,860.9,248,859.5,250.3z M874.1,252.4c2,0.3,4,0.5,5.9,0.9c1.3,0.2,1.7-0.3,1.8-1.5c0.1-1.4,0.5-2.7,0.5-4.1
		c0-0.7-0.3-1.9-0.5-2c-1.3-0.1-3.1-0.5-3.7,0.2C876.5,247.8,875.4,250.1,874.1,252.4z M867.9,287.4c1.1-1.8,2.2-3.5,3.1-5.2
		c0.3-0.5,0.3-1.7,0.1-1.8c-1-0.6-2.6-1.6-3.3-1.3c-2.2,1.1-4.1,2.8-6.3,4.4C863.6,284.9,865.6,286.1,867.9,287.4z M827.2,254
		c-1.8-1.1-3.3-2.1-4.9-2.9c-0.4-0.2-1.5-0.2-1.7,0.1c-1.3,1.9-2.4,3.8-3.8,6.2c1.6,0.4,3.1,1.3,4,0.9
		C823.1,257.3,825,255.6,827.2,254z M831,238.4c-2-0.3-3.8-0.7-5.7-0.8c-0.4,0-1.2,0.7-1.3,1.1c-0.4,1.5-0.6,3.1-0.7,4.6
		c0,0.6,0.4,1.7,0.7,1.8c1,0.2,2.3,1.1,3.1-0.4C828.4,242.7,829.6,240.7,831,238.4z"/>
	<path class="st0" d="M818.5,291.8c-3.2-1.9-6.5-3.9-9.7-5.8c-1.6-1-2.1-2.4-1.3-3.5c1-1.5,2.4-1.3,3.8-0.5
		c6.5,3.9,13.1,7.9,19.7,11.8c1.4,0.8,2.1,2,1.4,3.6c-0.6,1.3-2.1,1.5-3.9,0.5C825.1,295.7,821.8,293.7,818.5,291.8z"/>
	<path class="st0" d="M823.5,283.4c-3.2-1.9-6.5-3.9-9.7-5.8c-1.6-1-2.1-2.3-1.3-3.5c0.7-1.2,2.2-1.5,3.8-0.5
		c6.6,3.9,13.2,7.9,19.8,11.8c1.5,0.9,2,2.4,1.3,3.6c-0.7,1.2-2.1,1.4-3.7,0.5C830.2,287.4,826.9,285.4,823.5,283.4z"/>
</g>
<path class="st1" d="M312.3,297.5c0,0,1.1-43.5,30.2-44.5c0,0,29.1-1,30.5,44.5"/>
<path class="st1" d="M373,303.1c0,0,0.6,30.9-17.6,42c-7.7,4.7-17.1,4.3-24.6-0.8c-7.9-5.3-17.1-16.8-18.4-41.2"/>
<path class="st1" d="M319.9,298c0,0,0.8-35.4,22.7-36.2c0,0,21.8-0.8,22.9,36.2"/>
<path class="st1" d="M365.4,302.3c0,0,0.4,24.6-13.2,33.5c-5.8,3.8-12.8,3.5-18.5-0.6c-6-4.2-12.9-13.4-13.8-32.9"/>
<polyline class="st1" points="394.3,300.9 407.9,346 416.9,346 430.3,301.8 "/>
<polyline class="st1" points="431.8,296.6 444.2,252.9 434.6,252.9 412.3,333.8 390.6,252.9 380,252.9 393,296.6 "/>
<polyline class="st1" points="489.2,296.1 489.2,252.6 540.8,252.6 540.8,263.8 501.7,263.8 501.7,293.3 521.8,293.3 521.8,296.1 
	"/>
<polyline class="st1" points="522.1,301.4 522.1,304.5 501,304.5 501,335.5 540.8,335.5 540.8,347 489.2,347 489.2,301.4 "/>
<polyline class="st1" points="458.2,301.7 458.2,347.9 469.7,347.9 469.7,301.7 "/>
<polyline class="st1" points="458.2,295.5 458.2,252 469.7,252 469.7,295.5 "/>
<path class="st1" d="M579.9,307.4c0,0,13,6.2,11.8,17c0,0-1.7,10.8-14.1,11.4c-12.4,0.6-14.5-14.2-14.5-14.2l-12.2,0
	c0,0,1,26.3,26.5,26.8c0,0,25.7,0.1,26.3-27.4c0,0,0.5-14.4-23.8-27.1"/>
<path class="st1" d="M575.1,291.4c0,0-16-7.8-12.5-18.5c0,0,3.4-12.3,18.6-9.1c0,0,8.8,3.6,9,13.5H602c0,0-0.4-24.9-25.5-26.8
	c0,0-22.5-1.8-26.7,23.9c0,0-0.3,12,7.4,18.1s17.7,12.1,17.7,12.1"/>
<polyline class="st1" points="231.8,301.7 231.8,346.8 240.5,346.8 240.5,301.7 "/>
<polyline class="st1" points="231.8,297.1 231.8,255.9 245.7,255.9 256.7,297.8 "/>
<polyline class="st1" points="256.7,297.8 266.2,333.5 275.5,298.5 287.2,255.9 300,255.9 300,297.8 "/>
<polyline class="st1" points="240.5,301.7 240.5,269.6 247.8,295.6 261.8,346.8 269.6,346.8 290.6,271.2 290.6,346.8 300,346.8 
	300,301.7 "/>
</svg>
