<?xml version="1.0" encoding="utf-8"?>
<!-- Generator: Adobe Illustrator 22.1.0, SVG Export Plug-In . SVG Version: 6.00 Build 0)  -->
<svg version="1.1" xmlns="http://www.w3.org/2000/svg" xmlns:xlink="http://www.w3.org/1999/xlink" x="0px" y="0px"
	 viewBox="0 0 841.9 595.3" style="enable-background:new 0 0 841.9 595.3;" xml:space="preserve">
<style type="text/css">
	.st0{fill:none;stroke:#1B1862;stroke-width:2;stroke-miterlimit:10;}
</style>
<g id="Layer_1">
</g>
<g id="Layer_2">
	<path class="st0" d="M296.2,235.1c0,0,0.9-35.1,24.3-35.9c0,0,23.4-0.8,24.5,35.9"/>
	<path class="st0" d="M345.1,239.7c0,0,0.5,24.9-14.2,33.8c-6.2,3.8-13.7,3.5-19.9-0.6c-6.4-4.3-13.8-13.5-14.8-33.2"/>
	<path class="st0" d="M302.3,235.6c0,0,0.7-28.5,18.3-29.2c0,0,17.6-0.7,18.4,29.2"/>
	<path class="st0" d="M339,239c0,0,0.4,19.9-10.7,27c-4.7,3-10.3,2.8-14.9-0.5c-4.8-3.4-10.4-10.8-11.1-26.5"/>
	<polyline class="st0" points="362.3,237.9 373.3,274.2 380.5,274.2 391.3,238.6 	"/>
	<polyline class="st0" points="392.5,234.4 402.5,199.2 394.8,199.2 376.8,264.4 359.3,199.2 350.8,199.2 361.3,234.4 	"/>
	<polyline class="st0" points="438.8,234 438.8,199 480.3,199 480.3,208 448.8,208 448.8,231.7 465,231.7 465,234 	"/>
	<polyline class="st0" points="465.3,238.2 465.3,240.7 448.3,240.7 448.3,265.7 480.3,265.7 480.3,275 438.8,275 438.8,238.2 	"/>
	<polyline class="st0" points="413.8,238.5 413.8,275.8 423,275.8 423,238.5 	"/>
	<polyline class="st0" points="413.8,233.5 413.8,198.5 423,198.5 423,233.5 	"/>
	<path class="st0" d="M511.8,243.1c0,0,10.5,5,9.5,13.7c0,0-1.3,8.7-11.3,9.2c-10,0.5-11.7-11.4-11.7-11.4l-9.8,0
		c0,0,0.8,21.2,21.3,21.6c0,0,20.7,0.1,21.2-22c0,0,0.4-11.6-19.2-21.8"/>
	<path class="st0" d="M507.9,230.2c0,0-12.9-6.2-10.1-14.9c0,0,2.8-9.9,15-7.3c0,0,7.1,2.9,7.2,10.9h9.6c0,0-0.3-20.1-20.6-21.6
		c0,0-18.2-1.4-21.5,19.2c0,0-0.2,9.7,6,14.6c6.2,4.9,14.2,9.8,14.2,9.8"/>
	<polyline class="st0" points="231.3,238.5 231.3,274.9 238.3,274.9 238.3,238.5 	"/>
	<polyline class="st0" points="231.3,234.8 231.3,201.6 242.5,201.6 251.4,235.4 	"/>
	<polyline class="st0" points="251.4,235.4 259.1,264.1 266.5,235.9 276,201.6 286.3,201.6 286.3,235.4 	"/>
	<polyline class="st0" points="238.3,238.5 238.3,212.7 244.3,233.6 255.5,274.9 261.8,274.9 278.7,214 278.7,274.9 286.3,274.9 
		286.3,238.5 	"/>
</g>
</svg>
