<svg id="Layer_2" data-name="Layer 2" xmlns="http://www.w3.org/2000/svg" viewBox="0 0 301.63 80.9"><defs><style>.cls-1{fill:none;stroke:#d5edf9;stroke-miterlimit:10;stroke-width:2px;}</style></defs><title>movie-title-light</title><path class="cls-1" d="M453.87,493.2s.9-35.05,24.32-35.86c0,0,23.41-.81,24.54,35.86" transform="translate(-387.98 -454.39)"/><path class="cls-1" d="M502.73,497.79s.47,24.88-14.21,33.83a18.12,18.12,0,0,1-19.86-.61c-6.39-4.29-13.79-13.49-14.79-33.22" transform="translate(-387.98 -454.39)"/><path class="cls-1" d="M460,493.66s.68-28.53,18.26-29.19c0,0,17.59-.66,18.44,29.19" transform="translate(-387.98 -454.39)"/><path class="cls-1" d="M496.65,497.1S497,517,486,524.09a13,13,0,0,1-14.91-.48c-4.8-3.42-10.36-10.77-11.11-26.51" transform="translate(-387.98 -454.39)"/><polyline class="cls-1" points="131.91 41.62 142.91 77.95 150.16 77.95 160.91 42.32"/><polyline class="cls-1" points="162.16 38.12 172.16 2.95 164.41 2.95 146.41 68.08 128.91 2.95 120.41 2.95 130.91 38.12"/><polyline class="cls-1" points="208.41 37.7 208.41 2.7 249.91 2.7 249.91 11.7 218.41 11.7 218.41 35.45 234.66 35.45 234.66 37.7"/><polyline class="cls-1" points="234.91 41.95 234.91 44.45 217.91 44.45 217.91 69.45 249.91 69.45 249.91 78.7 208.41 78.7 208.41 41.95"/><polyline class="cls-1" points="183.44 42.22 183.44 79.47 192.69 79.47 192.69 42.22"/><polyline class="cls-1" points="183.44 37.22 183.44 2.22 192.69 2.22 192.69 37.22"/><path class="cls-1" d="M669.44,501.24s10.5,5,9.5,13.67c0,0-1.33,8.67-11.33,9.17s-11.67-11.42-11.67-11.42h-9.83s.83,21.17,21.33,21.62c0,0,20.67.12,21.17-22,0,0,.41-11.58-19.17-21.83" transform="translate(-387.98 -454.39)"/><path class="cls-1" d="M665.52,488.33s-12.91-6.25-10.08-14.92c0,0,2.75-9.92,15-7.33A12.39,12.39,0,0,1,677.69,477h9.58s-.33-20.08-20.58-21.58c0,0-18.17-1.42-21.5,19.25,0,0-.25,9.67,6,14.58A165,165,0,0,0,665.44,499" transform="translate(-387.98 -454.39)"/><polyline class="cls-1" points="1 42.24 1 78.59 7.98 78.59 7.98 42.24"/><polyline class="cls-1" points="1 38.52 1 5.32 12.2 5.32 21.09 39.1"/><polyline class="cls-1" points="21.09 39.1 28.73 67.84 36.17 39.62 45.63 5.32 55.91 5.32 55.91 39.1"/><polyline class="cls-1" points="7.98 42.24 7.98 16.38 13.92 37.35 25.15 78.59 31.49 78.59 48.38 17.66 48.38 78.59 55.91 78.59 55.91 42.24"/></svg>